<svg xmlns="http://www.w3.org/2000/svg" width="110.71899" height="114" viewBox="0 0 110.71899 114">
  <path fill="#fff" d="M1.7528946 0H58.464184v20.622287H1.7528946Z"/>
  <path fill="#000091" fill-rule="evenodd" d="M25.198165 18.189785c.22138-.221381.444824-.459052.666924-.697549.396878-.472044.831079-.915321 1.294875-1.326529.134254-.121771.275926-.234887.424407-.338825.01949-.01949.02928-.04877.03897-.07796.0097-.02928.01949-.05846.03897-.07796-.09734.03897-.175294.09743-.253242.1558-.07796.05846-.155895.116926-.253344.155914-.03897 0-.07796-.03887-.03897-.07784l.416364-.312324c-.0086.000515-.01767.000515-.02671.000515-.03887 0-.03887-.03887-.03887-.07796-.502462-.07723-.889749.266954-1.238266.576599l-.0089.008c-.05197.02609-.10393 0-.144362-.02022-.0201-.01007-.03743-.01881-.05043-.01881-.306344.102182-.569897.289949-.835409.479159h-.000104c-.241177.171893-.484004.344907-.762096.456163v-.07796c-.09692.03228-.192715.07549-.288713.118788-.135697.06126-.271903.122702-.412754.153938-.263759.05858-.505453.05115-.74168.04381h-.000412c-.07784-.0025-.155078-.0048-.232311-.0048-.476478.05795-.949554.142196-1.416855.252313l-.02042.0051-.0093.0023-.01102.0028c-.252829.06815-.496584.166326-.72611.292423-.0091.0049-.01786.01007-.0266.01539-.01938.02434-.03846.04763-.05641.06743-.07351.09394-.164255.173014-.267265.233134-.169404.0862-.317068.217772-.463691.348312-.06053.05392-.12084.107749-.182514.158061-.01843.01273-.04011.0197-.06249.0198-.06424.06166-.128174.123519-.1922.185402v.000102h-.000103v.000103c-.144153.139308-.2883.278814-.435336.415127-.03713.01729-.07868.02217-.118883.01425.01064-.01596.01843-.02825.02578-.04062.03279-.05506.0661-.10982.09981-.16435.03773-.06093.07621-.121258.115596-.180956.05311-.08064.107749-.160341.165908-.23726.01349-.01463.01292-.03733-.0014-.05115-.01463-.01387-.03424-.02124-.05444-.02043.199314-.186428.418736-.350169.65414-.488131-.02599.0023-.06382-.01843-.04414-.04588.01463-.02022.02723-.04114.03981-.06219.0089-.01482.01786-.02949.02744-.04402.0044-.01159.0085-.0232.01254-.03475-.0061-.0067-.01216-.01292-.01824-.01917l-.01121-.01159c-.06414.03806-.125381.08085-.183122.127965-.02825.02546-.05464.05898-.08166.09331-.06207.07898-.127452.162089-.22602.160949-.02001-.00031-.0399-.0032-.05909-.0084-.01444-.0019-.02835-.0066-.04093-.01387l.0051-.0089.0057-.01102.0057-.01007.01862-.03352.01007-.01805.0085-.01558.01501-.02702c.0093-.01653.01824-.03268.02763-.04938l.0078-.01368.0042-.0072.0084-.01425c.01159-.0201.02329-.04001.03505-.06l.00031-.00062.01501-.02537.02402-.04134.0171-.02939.000207-.000207.000102-.00031.000103-.000205h.000104l.01178-.02031.01216-.02042c.008-.01273.0093-.02856.0034-.04248-.0059-.01387-.01805-.02402-.03279-.02723.07249-.09454.163229-.173641.266853-.232516h-.01178c.102695-.05176.2054-.111055.308099-.170449l.000102-.000103.00031-.000102c.0463-.02681.0927-.05362.138985-.07971.01444-.01235.02846-.02464.04258-.03692l.02185-.01881c-.219319.07414-.427912.177042-.620318.305932-.0231.0091-.04507.02103-.06527.03557-.03659.008-.07444-.0059-.09724-.03557-.0063-.0082-.0095-.01843-.0093-.02867.02278-.04537.07197-.07763.12445-.111986.03764-.02464.07693-.05043.109497-.0829.03878 0 .07775 0 .07775.03897.773851-.604542 1.727528-.743846 2.684507-.883561.585258-.08539 1.171861-.171057 1.719072-.363468l.350683-.233753c.100225-.04011.190137-.11115.285618-.186523.09023-.07125.185288-.146414.298816-.203234.314903-.216121.548245-.531745.662492-.89614-.0042-.0296-.01767-.05702-.03887-.07805-.489778.528032-1.070501.96368-1.714639 1.286005-.590106.309128-1.220737.354806-1.848066.400176-.242622.01748-.48483.03505-.723945.06785.03908-.07784.11704-.07784.194881-.07784 0-.09259.04877-.136306.107749-.189107.01558-.01387.03186-.02846.04815-.04474h.11704c.01938 0 .02907-.01949.03876-.03897.0099-.01949.01949-.03897.03897-.03897.07796 0 .194983-.03897.156009-.03897-.05939-.07919-.148884-.04784-.24819-.01292-.0962.03361-.20148.07053-.297373.01292.03764-.03764.04794-.08445.05744-.127129.01007-.04558.01908-.08651.05939-.106609h.155914c.0082-.05909.03557-.113943.07796-.155914.347176-.208388.680637-.389245 1.008532-.567009.224166-.121562.445751-.241693.667441-.368315-.04537 0-.08476.01748-.122911.03454-.06032.02692-.11723.05229-.188803.0046.03897 0 .03897-.02928.03897-.05846 0-.02928 0-.05858.03897-.05858.245302-.06682.465033-.171988.688475-.279021.167048-.07991.336142-.16074.519475-.227464-.05341 0-.102391.01387-.149815.02711-.09084.02557-.176434.0497-.278814-.02711.02588-.01292.04754-.03031.0692-.04763.0433-.03464.08662-.06929.164559-.06929v-.116926c0-.03897.03908-.03897.07805-.03897-.0296-.0042-.05702-.01767-.07805-.03897.02022-.0402.06114-.04929.106723-.05939.04269-.0095.08949-.0198.127129-.05744-.03897 0-.116926 0-.116926-.03897.116926-.155914.311707-.194984.506691-.233858-.01959-.03897-.05858-.03897-.0927-.03897-.03403 0-.06331 0-.06331-.03897s.03897-.03897.07796-.03897h-.07796c-.06042-.03021-.05052-.08383-.04309-.124564.0021-.01178.0042-.02257.0042-.03124.155895-.181887.207873-.398422.259737-.614853.02599-.108262.05196-.216534.09095-.320469-.03897 0-.07796 0-.07796-.03897-.378212.416157-.97698.575154-1.546258.726419l-.05136.01368h-.194778c-.215916.08476-.458125.07053-.662595-.03897-.09435-.04723-.160132-.10868-.231897-.175712-.04682-.04381-.0962-.08991-.157662-.136116-.304796-.194571-.631866-.351713-.974299-.46792-.967598-.316345-1.983039-.46132-3.000543-.42853.280051-.152817.579075-.214267.881602-.276443.16055-.033.322121-.0662.482357-.113316.09682-.02846.19292-.05784.288403-.08702.558038-.170449 1.099992-.335937 1.698862-.302734-.07919-.02639-.17632-.0171-.267161-.0082-.04309.0042-.08485.0082-.122493.0082-.438841-.03135-.877786.0634-1.337252.162602-.111568.02413-.224369.04847-.338721.07136-.194674.03887-.379553.09734-.564535.155705-.185193.05846-.370377.116926-.565463.155914-.08981.03-.162393.0829-.233238.134558-.11343.0828-.222308.162298-.39038.138168v-.116831c.389762-.468023.857371-.93522 1.480887-.974197.592788-.09878 1.157839-.03051 1.742068.04001h.000309c.106932.01292.214471.02588.323048.03794.499575.0531.994304.144248 1.480062.27273.107122 0 .167143.09414.225298.185402.04775.07486.09424.147858.164559.165395.09342.03114.187055.03743.280567.04362.140334.0093.28067.01862.420695.112176 0-.02599-.0044-.05196-.0087-.07784-.0087-.05196-.01729-.10393.0087-.155914.08795-.08807.188385-.06424.287166-.04083.0763.01805.151677.03578.219524.0019.211481-.132183.01045-.336144-.189411-.538861-.09466-.09599-.189107-.191787-.239218-.279535.0042-.02949.01767-.05692.03887-.07796.09342.08176.179835.167048.265512.251592.200345.19756.396878.391307.66971.527828.194879.07784.66249.194879.584539-.03887-.136515-.300571-.368933-.562782-.602996-.8269543-.09992-.112708-.200037-.2257105-.293249-.3422261v-.155287c-.05702 0-.07228-.020938-.09166-.047329-.007-.00969-.01482-.020216-.02516-.030628v-.1558c-.09806-.048982-.118997-.128782-.140429-.2103471-.01273-.048146-.02546-.096919-.05443-.140334-.06517-.108585-.06981-.241281-.07465-.3780069-.0038-.108775-.0078-.220039-.04228-.3235643-.070417-.2159976-.122496-.4375832-.156107-.6623665-.04579-.2599428-.097546-.5078244-.148162-.7507546h-.000103v-.0001026c-.07847-.3763558-.154565-.740753-.202304-1.1195845-.060002-.5698955.226535-1.0477151.521639-1.5398664.08816-.146927.177137-.2952068.257779-.4475032.272729-.4680232.584436-.9353225 1.091021-1.2470289.116717-.4666818.427088-.8552071.737455-1.2437305l.0027-.00323c.310779-.3807011.827883-.6123928 1.202487-.7798455C27.798843.2451988 28.144472.1132172 28.496392 0H1.7528944v20.621667H20.692609c.516897-.372128 1.033279-.60815 1.649164-.889645.268193-.122607.555152-.253756.869229-.408528.06032-.0297.130131-.0634.206842-.100643l.000722-.00031.001-.000515.000414-.000207c.547109-.264789 1.446343-.700022 1.778155-1.032042zm-6.187305-2.830512c.02732-.136724.169613-.17746.30614-.216638.05816-.01653.115178-.03289.161785-.0562l.01862-.0095.02103-.01121.000102-.000102c.07435-.0398.167447-.0897.233032-.05702.04414.0662.100738.08238.155705.09815.04207.01216.08331.02392.117135.05774-.140752.140543-.309541.154356-.481014.168378-.113829.0093-.228908.01881-.337691.06547-.019 0-.04248.0023-.06671.0046-.07549.0074-.157662.01539-.128174-.04362zm-4.55938-2.883717c-.349961.701467-.767665 1.36705-1.246927 1.987369.004.0296.01767.05702.03897.07805.935323-1.052252 1.792592-1.948497 3.000131-2.68894.02991-.01482.0197-.0012.0046.01908-.02434.03279-.06165.0829.03445.05888.405023-.09342.58588-.435957.761581-.768697.04402-.08352.08774-.166326.134672-.244476.181165-.294385.441316-.483387.703838-.674246.189316-.137655.379965-.2762371.543191-.4557529.0053.042788-.0091.085785-.03897.116831.03114.030001.07414.044327.116926.038969.06794-.050825.143108-.072181.216018-.09291.09487-.026904.185915-.052801.252005-.140847-.323152-.129409-.681051-.143222-1.013278-.039083-.818394.3897619-1.519656 1.0132759-2.182249 1.7147439-.397702.421107-.818293.818292-1.324879 1.091022zm1.909418-.350683c-.03063.0696-.0862.125172-.1558.155914-.03897 0-.07796 0-.07796-.03897.03496-.163647.15333-.296858.311809-.350786.03897-.000102.03897.03897.03897.07796-.02001.04011-.04114.06177-.06177.0828-.01938.01989-.03836.03929-.05527.07311zm1.882093 5.856626c.03145-.02888-.0027-.05043-.05145-.06032.04001-.03042.07269-.0692.09589-.113734.03186-.07651-.174154-.05816-.206225-.03589-.03144.02506-.0596.05413-.08373.0863-.05094.05485-.10507.106628-.161994.155192-.04279.03918-.08434.0795-.125894.119719-.05331.05176-.106608.103417-.162184.152399-.06557.05765.148695.08786.194882.04682.0498-.04414.09775-.09012.145388-.136306.02022-.000824.04032-.0034.06-.0082.111986-.04682.212718-.11704.295311-.206017zm-.66342-.489263-.04589.03238c-.130644.09219-.261489.184471-.399041.264379-.123519.07167-.251283.13053-.379449.189734-.04486.02061-.08981.04134-.134558.0627-.0012-.0034-.003-.0067-.0051-.0095-.01482-.02082-.04269-.02753-.06527-.01558-.143317.08166-.275101.182096-.391824.29861-.01824.01729-.03629.03475-.05443.05248-.02464.02423-.04309.04258-.06156.06114l-.0065.0065c-.000618.000619-.000927.0013-.0012.0019l-.0011.0016c-.02774.02753-.05434.05537-.08485.09114-.01406.02094-.03165.03939-.05196.05434-.02423.01615-.09126.01577-.08506-.02918v-.0076l-.0029.0015c-.02206.01159-.04414.0232-.0664.03393-.02022.0095-.03825.0201-.0566.03093l-.0042.0025c-.0085-.0032-.01767-.0046-.0269-.004-.01007.000102-.01989.0034-.02804.0093-.04763.03733-.09475.07712-.140752.118788-.08187.07372-.157548.154147-.226125.240354l-.01121.01444-.01159.01501c-.0038.0051-.0084.01102-.01235.01615l-.0038.0048-.0057.0082-.01121.01653-.0093.01406c-.01026.01064-.02155.01615-.03352.01767l-.0065-.0095c-.0032-.0046-.0065-.0091-.0091-.01387l-.0065-.01102-.0044-.0078c-.01178-.0201-.02289-.04093-.03331-.06238l-.0011-.0023-.0044-.0091-.0047-.01026c.04218-.04537.0829-.09228.122284-.140334l.0078-.0093c.01368-.01672.02711-.03331.04053-.05001l.06527-.08341c.0047-.0065.0093-.01235.01406-.01843l.0097-.01254c.04279-.05588.08373-.110124.121885-.164559l.0028-.0042.0068-.01007c.0032-.0048.0065-.0095.01007-.01444.01862-.02753.03661-.05537.05341-.08373.0152-.02546.02939-.05136.04258-.07775l.0032-.0057.004-.008c.0011-.0023.0021-.0046.003-.007.0011-.0025.0021-.0051.0032-.0076.01368-.02939.02609-.0596.03701-.09084l.0034-.01007.0021-.0065c.0023-.0063.0046-.01273.0065-.01917.0044-.01406.0085-.02846.01235-.043.000722-.0032.0012-.0065.0021-.0095l.0034-.01368v-.000105c.0036-.01425.0072-.02846.01007-.04341.0016-.0091 0-.01843-.0047-.02618.04393-.07537.09568-.145901.15447-.210452-.0029.0018-.0057.0034-.0087.0049-.003.0017-.0063.0034-.0091.0053-.03103.02001-.0563.04435-.08157.06878-.02001.01949-.04011.03887-.0631.05609-.04248.03165-.120631-.02082-.07043-.05846.03114-.02485.06072-.05166.08858-.08033.06578-.07693.132088-.143013.203026-.204058l.01672-.01216c.03794-.02753.07155-.05197.102999-.0794.004-.0034.0076-.007.0114-.01045l.0055-.0051c.0266-.03475.05567-.06755.08713-.09796l.0017-.0016c.000722-.000826.0014-.0015.0023-.0021.227979-.220041.551234-.299641.880468-.380585.209317-.05155.421108-.103721.612277-.19292.108471-.04341.229113-.02639.348412-.0095.09475.01349.188689.02681.274896.0095.122284-.01197.245096.01539.350786.07805-.270049.147041-.52453.308818-.773337.467094-.07351.04682-.146414.09321-.219214.138795zm.651767-2.795455h.311809c-.02196.04402-.08124.05073-.121676.05537-.03114.0034-.05103.0057-.03412.02278.11704.116622.350784.07775.506585-.000205.11837-.06661.254789-.09394.389658-.07796.03897 0 .03897-.07796.03897-.116831.100529.03196.206222.04528.311604.03887.935322-.194881 1.83167-.389658 2.688939-.818397-.865104-.665378-1.929112-.961514-2.973631-1.252183-.17879-.0497-.356972-.09929-.533602-.150651.03897 0 .07796.01292.116926.02599.07796.02599.155914.05197.233856-.02599-.106001-.08476-.223649-.10032-.340267-.115786-.09755-.01292-.194469-.02567-.283248-.07898.0087 0 .01949.0019.03135.0042.04074.0076.09435.01729.124563-.04309-.207768-.103835-.415537-.138472-.623308-.173128-.10393-.01729-.207976-.03475-.312014-.06072.186732-.03361.319954-.200038.311809-.38966 0-.03887-.07796-.03887-.116926-.03887-.467609.233753-.779418.662388-.974196 1.168975.174059.0995.36388.08786.549377.07661.105279-.0065.209215-.01273.307994.0013-.08681.08651-.216121.108984-.34068.130644-.04372.0076-.08681.01501-.127338.02527-.119605.02979-.233857.116831-.194881.194776.02124.02949.0529.04959.08858.05641-.09207.02422-.176225.07197-.244374.138472.111568.08352.22303.06764.33439.05166.04454-.0063.08898-.01273.133532-.01273 0 .05196.03464.06929.06939.08662.01729.0087.03464.01729.04763.03031-.170335.06207-.310055.187758-.38976.350579-.04682.11704-.135698.191788-.224473.266646-.05928.04991-.118484.09971-.165186.162089v.116831c-.132506.119187-.269432.224781-.404611.329234-.262934.202924-.519681.401-.725492.684042.03887 0 .03887.03897.03887.07784-.03526.05299-.08651.09002-.135698.125495-.05939.04279-.115691.08331-.137142.14725 0 .03908 0 .07805.03908.07805.245094-.08166.458019-.216844.66682-.349445.189734-.120441.37615-.238807.580209-.312943.16663-.04176.310881-.116717.450803-.189525.121885-.06331.240456-.124963.367489-.161272.09734-.01949.204573-.04866.311706-.07796.107236-.02918.214369-.05846.311809-.07796 0 .03897 0 .07796.03887.07795zm1.797335 3.434951c.003-.0023.0063-.0047.0093-.0072l.0068-.0055c.05641-.0398.108775-.09074.155705-.151582-.0032-.001-.0065-.0021-.0095-.0034-.003-.0011-.0059-.0027-.0087-.004-.05196.0532-.102486.110428-.153539.171893zm7.601583-2.557162-.08094.06053c.04474-.0021.08094-.01349.08094-.06053z" clip-rule="evenodd"/>
  <path fill="#e1000f" d="M58.46346 0H36.280376c.07383.024225.144457.057133.210555.097964.180139.096615.413578.2212759.559688.2978877.29892.137655.555564.3529516.74302.6234128.07796.116926.194881.3507856.116926.5066901-.07796.1947766-.116926.5065856-.311706.5845369-.233858.116831-.545667.116831-.818397.077843-.158593-.00684-.315727-.033003-.468021-.077843.584434.2337551 1.129996.5065875 1.519759 1.0521497.03897.077957.194776.116831.350785.116831.03897 0 .03897.077957.03897.116926-.07805.078052-.156009.116926-.11704.2337551h.11704c.194779-.077957.1558-.4679206.428635-.350683.198903.122607.267265.3792438.1558.5845388-.14611.141265-.30253.2714929-.467919.3896577-.03897.086716-.03897.18601 0 .2728343.09755.140334.163951.2998466.194776.4679187.11704.2727298.155914.5845388.272833.8572686.155914.5845388.311706 1.1690776.27273 1.7536164 0 .311809-.155914.5845388-.03897.8963478.07796.3117045.272729.5455622.428736.818292.155705.2337532.311705.3896577.428635.6235154.23365.389658.662387.779315.468023 1.246926-.116926.27273-.545564.233856-.818294.389761-.233856.194778-.03897.506483.07784.701364.194879.350785-.233858.584539-.506587.701466.07796.116831.233857.07784.272729.1558.03897.194882.233858.311809.11704.506588-.155895.233856-.623515.350784-.389762.701467.155895.272832.05443.575774-.03887.857371-.116926.350681-.428634.506483-.701468.584539-.240145.07104-.493696.08434-.74003.03887-.07115-.04309-.150955-.06981-.233755-.07784-.662592-.07805-1.325084-.272833-1.987472-.272833-.187758.02856-.371098.08094-.545562.1558-.169727.12445-.327585.264068-.471838.417291l-.0046.0049c-.02928.03114-.05732.06268-.08497.09445-.0171.0197-.03361.03981-.05022.05981-.01121.0133-.02227.02671-.03319.0402-.113107.141987-.215607.292116-.306757.449155-.0057.0099-.01159.0198-.01729.02979-.01026.01805-.0201.03629-.03012.05443-.122607.227567-.221483.467094-.295105.714974-.264894.892327-.149093 1.658033.03692 1.843839.05176.05176 1.286213.432862 2.14606.815404.317171.133228.624545.288713.919754.465343h21.783629z"/>
  <path fill="gray" d="M37.599687 7.5230101c.156009.038969.389658.038969.389658.116926-.07784.3116038-.545665.3895551-.77942.7014667h-.116622c-.116831.077957-.07784.2727298-.194777.2727298-.117952-.025878-.241178-.01216-.350683.038969.155914.1558.350683.2729369.584436.2337532.06713.023294.11343.085063.116926.156104.02991-.00285.05774-.01672.07796-.039083.03908 0 .07805 0 .07805.039083v.1558c-.117021.155914-.311911.077843-.467918.116926.29366.077957.602583.077957.89614 0 .233961-.077957 0-.4680232.156009-.6625946-.07784 0 0-.116926-.07784-.116926.07784-.077843.1558-.1947785.233754-.2337532.09259.00247.180348-.041344.233857-.116926 0-.077843-.1558-.116831-.116926-.1949837.233754-.155591.42853-.3895532.350784-.6233083-.03908-.116926-.350784-.116926-.545665-.1948792-.194983-.077843-.428737 0-.662387.038969-.194984 0-.389865.116926-.584642.155914-.265409.09063-.515145.2219998-.740031.3895551.279019-.100833.565773-.178999.857372-.2337532.233443 0 .431932-.057532.661975 0z"/>
  <path fill="#1e1e1e" d="M0 46.400145h3.1139651l1.3816933-3.753256h5.7742406l1.381693 3.753256h3.113965L9.300652 31.964544H5.4649054Zm5.4030395-6.248553 1.9797392-5.423662 1.9797392 5.423662zm18.0129485 3.918233c-2.722142 0-4.660638-2.124095-4.660638-4.88748 0-2.763386 1.938496-4.887482 4.660638-4.887482 1.649783 0 2.948986.804268 3.773878 1.979739l2.309696-1.794139c-1.319826-1.752895-3.464544-2.928364-6.083574-2.928364-4.557525 0-7.671492 3.505789-7.671492 7.630246 0 4.124458 3.113967 7.630245 7.671492 7.630245 2.61903 0 4.763748-1.154847 6.083574-2.948987l-2.309696-1.773517c-.824892 1.175471-2.124095 1.979739-3.773878 1.979739zm7.018795 2.33032h3.113965l1.381694-3.753256h5.77424l1.381694 3.753256h3.113965l-5.464908-14.435601h-3.835744zm5.40304-6.248553 1.979739-5.423662 1.979739 5.423662zm11.901016 6.248553h5.67113c4.578149 0 7.671491-3.320189 7.671491-7.2178 0-3.897612-3.093342-7.217801-7.671491-7.217801h-5.67113zm5.712375-11.775326c2.680896 0 4.619392 1.979739 4.619392 4.557526 0 2.557163-1.938496 4.557525-4.619392 4.557525h-2.784009v-9.115051zm16.26985-3.897612 2.680897-2.78401h-3.010854l-2.330318 2.78401zm-5.50615 15.672938h8.413891v-2.433431h-5.485528v-3.712011h4.660638v-2.43343h-4.660638v-3.423299h5.485528v-2.43343h-8.413891zm12.126007 0h2.928365V36.047758l3.217077 5.403037h2.061919l3.217077-5.403037v10.352387h2.928363V31.964544h-3.650143l-3.526102 6.062953-3.526411-6.062953h-3.650145zm18.69173 0h2.928366V31.964544h-2.928366zm7.272449 0h8.41389v-2.433431h-5.48552v-3.712011h4.66063v-2.43343h-4.66063v-3.423299h5.48552v-2.43343h-8.41389ZM1.8147603 68.053546h5.6711295c4.5781472 0 7.6714912-3.320189 7.6714912-7.217801 0-3.897613-3.093344-7.2178-7.6714912-7.2178H1.8147603ZM7.527135 56.27822c2.680896 0 4.619392 1.97974 4.619392 4.557525 0 2.557164-1.938496 4.557526-4.619392 4.557526H4.7431258V56.27822Zm10.763699 11.775326h8.413892v-2.43343h-5.485528v-3.712011h4.660637v-2.433431h-4.660637v-3.423298h5.485528v-2.433431h-8.413892zm17.787548 0h8.413891v-2.660275h-5.485528V53.617945h-2.928363Zm21.685262-14.435601H54.21661l-3.856367 5.444285-3.856367-5.444285h-3.567657l5.95984 8.352026v6.083575h2.928366v-6.145441zm7.671799-.412446c-4.557526 0-7.671491 3.505788-7.671491 7.630246 0 4.124457 3.113965 7.630246 7.671491 7.630246 4.536904 0 7.650869-3.505789 7.650869-7.630246 0-4.124458-3.113965-7.630246-7.650869-7.630246zm0 12.517728c-2.722141 0-4.660637-2.124096-4.660637-4.887482 0-2.763387 1.938496-4.887482 4.660637-4.887482 2.701519 0 4.640015 2.124095 4.640015 4.887482 0 2.763386-1.938496 4.887482-4.640015 4.887482zm10.766998 2.330319h2.928366V57.618668l6.454775 10.434878h3.753256V53.617945h-2.928364v10.434878l-6.454777-10.434878h-3.753256z"/>
  <path fill-rule="evenodd" d="m55.329594 104.86433-1.917871 1.75289h-.494935l1.134226-2.00036h1.27858zm-1.381693 6.78473h-.412445c-.515557.61867-1.092982 1.1136-1.649783 1.1136-.577423 0-.866136-.35058-.866136-1.1136 0-.30934.04125-.63929.103113-.928l3.361433-1.11361c.659913-1.56729-.123728-2.24783-1.051736-2.24783-1.587917 0-3.402678 2.78401-3.402678 5.01122 0 1.05174.494935 1.62916 1.278583 1.62916.907379-.0206 1.856005-.90738 2.639649-2.35094zm-1.154847-3.38206c.45369 0 .845513.35058.639291 1.15485l-2.082852.5568c.329958-.98987.948626-1.71165 1.443561-1.71165zm-6.557888.0413h1.113603l-1.773517 4.86686c-.164977.41239.061868.82484.494935.82484 1.25796 0 2.763387-1.07236 3.340812-2.59841h-.309335c-.45369.63929-1.443559 1.34045-2.185962 1.46418l1.629161-4.55752h1.670404l.206224-.70116h-1.62916l.618668-1.75289h-.639291l-1.154849 1.75289-1.381693.18559zm-1.546672-.928c.226847 0 .53618.24746.391824.70115l-2.000362 4.84624c.515557-.0825 1.051737-.57742 1.361071-1.03111h.329957C44.296672 113.11324 43.224312 114 42.29631 114c-.226846 0-.556802-.24747-.391823-.70116l1.856005-4.84624c-.515557.0825-1.051737.57743-1.361071 1.03112h-.309335c.474313-1.23734 1.629161-2.10347 2.598408-2.10347zm.577425-1.23734c.412446 0 .763025-.32996.763025-.76303 0-.41244-.350579-.76302-.763025-.76302-.433069 0-.763025.35058-.763025.76302 0 .41245.350579.76303.763025.76303zm-9.011939 4.02135c.453689-.98987.288712-1.44357 0-1.44357-.247468 0-.53618.26809-.824891.76303h-.309335c.474312-1.05174 1.092981-2.10347 1.773517-2.10347.577423 0 .783647.57742.783647 1.21671v.90738c.09384-.10929.185079-.21653.274277-.32067h.000102c.871188-1.02287 1.536361-1.80342 2.303406-1.80342.598046 0 .907381.3712.907381.928 0 .32996-.103113.7424-.329957 1.17547l-1.71165 3.44392c.515558-.0825 1.051738-.57742 1.361071-1.03111h.309335C40.316569 113.13386 39.161723 114 38.192474 114c-.433067 0-.680535-.45369-.494935-.82489l1.979741-3.81512c.226845-.43307.268088-.72178-.0825-.72178-.474312 0-1.587915.78364-2.185961 1.50542l-1.299205 3.4233c-.144347.35058-.288703.43307-.618659.43307-.53618 0-.804268-.35058-.556801-.90738zm-1.340448-1.31983c.226845-.78365.103113-1.48481-.494935-1.48481-.745805 0-.979353.49288-1.702165 2.01686l-.05073.10724v-.90738c0-.63929-.206224-1.21672-.783647-1.21672-.680536 0-1.299205 1.05174-1.773517 2.10348h.309335c.329956-.47432.639291-.76303.886759-.76303.28871 0 .453689.45369 0 1.44356l-1.319828 2.92837c-.247467.5568.02061.90738.556803.90738.329956 0 .474312-.0825.618668-.43307l1.299203-3.4233c.371201-.45369.701159-.84551 1.113604-1.27858zm-6.516643.57742c.206222-.80427-.185592-1.15485-.639291-1.15485-.494935 0-1.113603.72178-1.443561 1.71165zm.515557 2.22721H28.5c-.515557.61867-1.092981 1.1136-1.649783 1.1136-.577424 0-.866136-.35058-.866136-1.1136 0-.30934.04125-.63929.103113-.928l3.361432-1.11361c.659914-1.56729-.123728-2.24783-1.051735-2.24783-1.587916 0-3.402678 2.78401-3.402678 5.01122 0 1.05174.494935 1.62916 1.278582 1.62916.907381-.0206 1.856006-.90738 2.639653-2.35094zm-6.599133-3.34081H21.19971v-.51556l1.381693-.18559 1.154849-1.75289h.639291l-.618669 1.75289h1.629161l-.206222.70116h-1.670406l-1.629161 4.55752c.742402-.12372 1.732272-.82489 2.185961-1.46418h.309336C23.798119 112.92764 22.292692 114 21.034733 114c-.433069 0-.659914-.41245-.494935-.82489zm-7.011576 3.77388c0-1.50543 1.670404-3.52641 2.598408-3.52641.206222 0 .412444.0206.577423.0825l-.969247 2.5984c-.556802.68054-1.422938 1.50543-1.835383 1.50543-.226846 0-.371201-.20622-.371201-.65991zm4.59877-5.03184.515557.0412-1.794139 4.12446c-.433069.98987-.247468 1.44356 0 1.44356.247467 0 .556802-.28872.886758-.76303h.309333C19.343704 112.94826 18.725036 114 18.044501 114c-.577425 0-.928003-.61867-.824892-1.73227l.04125-.39183-.11229.15674C16.409874 113.06581 15.741403 114 15.05427 114c-.598048 0-.907381-.3712-.907381-.928 0-2.39219 2.61903-5.44429 5.073082-5.44429h.103113zm-4.722503 1.79414c.226844-.78365.103113-1.48481-.494935-1.48481-.745805 0-.979353.49288-1.702165 2.01686l-.05073.10724v-.90738c0-.63929-.206224-1.21672-.783647-1.21672-.680536 0-1.299205 1.05174-1.773517 2.10348h.309335c.329956-.47432.639289-.76303.866136-.76303.288711 0 .45369.45369 0 1.44356l-1.319827 2.94899c-.2474676.55675.020622.90733.556802.90733.329956 0 .474313-.0825.618669-.43307l1.299203-3.4233c.371201-.45369.701159-.84551 1.113603-1.27858h1.361073zm-8.4963823 4.5369-.123728.3712H1.7529001l.123728-.39182c1.4848044-.26809 1.7322718-.39182 2.3509403-2.06223l1.3404481-3.58828c.5980478-1.6704.4743141-1.79414-.8248907-2.06223l.123728-.3712h6.2485532l-.371202 2.00036h-.453689c0-1.19609-.123728-1.50542-1.2579597-1.50542h-.2887126c-1.1136033 0-1.2579596.16497-1.5672929 1.03111l-.8867528 2.41281h1.2992029c.8661359 0 1.1960937-.53618 1.5879174-1.23734h.4536896l-1.0723581 2.92837h-.4536915c.103113-.88676.103113-1.23734-.701157-1.23734H6.1041965l-.5980459 1.64978c-.6465092 1.71681-.4617323 1.75187 1.0776173 2.04367.032072.006.064657.0123.09785.0186zm4.0832123-24.293103-1.9178735 1.381694v.02061h-.4949348l1.1342259-1.649784h1.2785824zM24.16932 98.76013l3.07272-8.166426-.103113-.123728-2.124095.247468v.247467l.412446.309335c.352125.274277.258911.528962-.03331 1.329105l-.04919.135071-2.35094 6.269176c-.185592.371201.06186.82489.494935.82489.969247 0 2.000361-.886758 2.474674-2.103472h-.309334c-.329957.453691-.989869.948626-1.484804 1.031114zm14.085022-6.289798 1.917873-1.752894v-.247467h-1.278582l-1.134226 2.000361zm.123728 5.011216h.412446c-.763025 1.464182-1.711651 2.35094-2.61903 2.35094-.783648 0-1.278583-.577423-1.278583-1.62916 0-2.227207 1.814761-5.011216 3.402678-5.011216.907379 0 1.711649.680536 1.051736 2.247829l-3.382055 1.113605c-.06186.288711-.103113.618669-.103113.928002 0 .763025.288712 1.113603.866135 1.113603.556803 0 1.134226-.494934 1.649786-1.113603zm-.103113-2.227206c.206222-.783648-.185592-1.134226-.639292-1.134226-.474312 0-1.09298.721779-1.443561 1.691028zm-6.062946-1.092981h-1.113603v-.515558l1.381693-.185592 1.154849-1.752894h.639291l-.618669 1.752894h1.629161l-.206224.701159h-1.670404l-1.629161 4.557525c.742402-.123728 1.732272-.824891 2.185961-1.464182h.309336c-.577426 1.526049-2.082853 2.598408-3.34081 2.598408-.433069 0-.659914-.412447-.494937-.824891zm-2.268452-.247468c.123728-.453691-.164977-.701158-.412444-.701158-.969247 0-2.124096.886758-2.598408 2.103472h.309333c.309336-.453689.845514-.948624 1.361071-1.031112l-1.856005 4.846236c-.164977.45369.164977.701157.391823.701157.928002 0 2.000362-.886758 2.474674-2.103472h-.309333c-.309335.453691-.845515.948626-1.361073 1.031114zm.948626-2.680898c0 .412447-.350578.763025-.763024.763025-.412447 0-.763025-.350578-.763025-.763025 0-.412446.329956-.763024.763025-.763024.412446 0 .763024.350578.763024.763024zM20.47793 94.408828c-.928002 0-2.598408 2.020985-2.598408 3.526412 0 .453689.144362.659911.391824.659911.391824 0 1.25796-.82489 1.81476-1.505427l.969249-2.598407c-.185592-.06186-.371201-.08248-.577425-.08248zm2.515919-1.464183-.515557-.04125-.577423.577423h-.103113c-2.454054 0-5.073084 3.052099-5.073084 5.444285 0 .5568.309335.928001.907381.928001.687135 0 1.355606-.93419 2.094296-1.967366l.11229-.156731-.04125.391824c-.103113 1.113603.247467 1.732272.824891 1.732272.680536 0 1.299205-1.051736 1.773517-2.103473h-.309335c-.329956.474312-.639292.763024-.886759.763024s-.433067-.453689 0-1.443561zm-10.393632 6.681621c-.886759.350579-1.505427.763024-1.505427 1.402314 0 .59805.556802.84552 1.711651.84552 1.54667 0 2.392183-.45369 2.392183-1.05174 0-.26809-.350578-.39182-1.27858-.70116-.598048-.185591-1.031115-.350577-1.319827-.494934zm1.031115-2.536542c-.412447 0-.556803-.350578-.556803-.721779 0-1.196092.577425-2.680896 1.505427-2.680896.412446 0 .556802.350578.556802.721779-.02061 1.216715-.598045 2.680896-1.505426 2.680896zm.783647 1.938496c1.134226.350579 1.835383.618669 1.835383 1.40232 0 1.01049-1.856006 2.20658-4.103835 2.18596-1.299205 0-2.412808-.35058-2.412808-1.19609 0-.80427.742402-1.464188 2.557164-2.000366-.247467-.164977-.35058-.371201-.35058-.659914 0-.494934.453692-.886758 1.237339-1.257959-.763025-.103113-1.25796-.680537-1.25796-1.52605 0-1.299203 1.072358-2.784009 2.763387-2.784009.350578 0 .659912.0825.907379.247467h1.856006l-.206223.701159h-1.09298c.06186.185592.103113.391824.103113.618669 0 1.257959-1.010492 2.701519-2.619031 2.784009-.412446.226845-.618668.536178-.618668.783645 0 .290775.337381.389763 1.082876.607328h.00031c.09909.02888.205398.05981.31913.09384zm-6.5372655-3.526411c.80427 0 .8248907.350578.701157 1.237337h.4536915l1.072358-2.928364h-.4536895c-.3918237.701157-.7217796 1.237337-1.5879174 1.237337H6.289798l.8661359-2.412808c.3093333-.866136.4536896-1.031115 1.5672929-1.031115h.7836474c1.1342258 0 1.2579598.309336 1.2579598 1.505427h.453689l.371202-2.000361H4.8668595l-.123728.371201c1.2992048.26809 1.4229385.391823.8248907 2.062229l-1.3404481 3.6089c-.6186685 1.670404-.8661359 1.794138-2.3715629 2.062228l-.103113.391824h7.4652672l1.3404496-2.124096h-.515557c-.8661359.845513-1.7322718 1.629161-3.4233003 1.629161-1.8600278 0-1.8268253-.09074-1.2687858-1.624004.035891-.09899.074024-.203131.113943-.31449l.6186685-1.649783H7.877723Zm6.1660645-17.6733c.412444 0 .763025-.350579.763025-.763025 0-.412445-.350581-.763023-.763025-.763023-.433069 0-.763025.350578-.763025.763023 0 .433069.329956.763025.763025.763025zm1.794137 7.83647c1.608539.02061 4.310059-2.948988 4.310059-5.238061 0-.989869-.247467-1.361072-.948626-1.361072-.866136 0-1.670404.928003-2.474674 2.041607l1.732272-4.640015-.103113-.144362-2.124096.247467v.247468l.412447.309335c.359136.279328.254995.558657-.05094 1.379425l-.03156.08476-1.876629 4.908104c-.164977.412447-.35058.907381-.35058 1.031115 0 .577423.783647 1.134226 1.505427 1.134226zm22.189582-7.341536 1.917871-1.752894v-.247467h-1.27858l-1.134226 2.000361zm.123728 5.011216h.412444c-.783645 1.464184-1.732272 2.350942-2.639651 2.33032-.783647 0-1.278582-.556803-1.278582-1.608538 0-2.227209 1.81476-5.011216 3.402678-5.011216.907379 0 1.711649.680534 1.051735 2.247829l-3.361432 1.113603c-.06186.288711-.103113.618669-.103113.928002 0 .763025.288712 1.113604.866136 1.113604.556802 0 1.134225-.494935 1.649785-1.113604zm-.103113-2.227206c.206222-.783648-.185592-1.134226-.639291-1.134226-.494935 0-1.113604.721779-1.443561 1.691028zm-6.083568-1.092981H30.85094v-.515557l1.381694-.185611 1.154848-1.752893h.639291l-.618668 1.752893h1.62916l-.206224.701158h-1.670404l-1.62916 4.557525c.742402-.123728 1.732271-.824891 2.185961-1.464182h.309335c-.577425 1.52605-2.082852 2.598408-3.34081 2.598408-.433069 0-.659913-.412445-.494936-.824891zm-1.691027.53618c.226845-.783647.103113-1.484806-.494935-1.484806-.745805 0-.979353.492563-1.702164 2.017066l-.05073.107027v-.907377c0-.639291-.206224-1.216716-.783648-1.216716-.680534 0-1.299204 1.051737-1.773517 2.103474h.309336c.329955-.474314.639291-.763024.866136-.763024.288712 0 .453689.453689 0 1.443559l-1.319828 2.928365c-.247467.556801.02061.907382.556803.907382.329956 0 .474312-.0825.618668-.433069l1.299205-3.423301c.371201-.453689.701157-.845513 1.113603-1.27858Zm-6.537265.556801c.206222-.783648-.185592-1.134226-.639292-1.134226-.494934 0-1.09298.721779-1.443559 1.691028zm.515557 2.227206h-.412446c-.515558.618669-1.092981 1.113604-1.649784 1.113604-.577423 0-.866136-.350579-.866136-1.113604 0-.309333.04125-.639291.103113-.928002l3.361433-1.113603c.659912-1.567295-.123728-2.247829-1.051737-2.247829-1.587916 0-3.402678 2.784007-3.402678 5.011216 0 1.051735.494935 1.608538 1.278582 1.608538.907381.02061 1.856006-.866136 2.639653-2.33032zm-8.661361.783648c0 .26809.474312.577423.80427.577423 1.340448 0 2.598408-2.412806 2.577785-3.753256 0-.45369-.226845-.639289-.536178-.639289-.494937 0-1.402316.742402-1.979741 1.443559l-.536178 1.443559c-.185611.474314-.329958.845515-.329958.928004zm-2.165339-5.052461c.247468 0 .536178.247467.412445.701159l-1.97974 4.846236c.515558-.0825 1.051738-.577423 1.361071-1.031114h.309335c-.474312 1.216716-1.546672 2.103474-2.474674 2.103474-.247467 0-.577425-.247469-.412446-.701158l1.856006-4.846237c-.515558.0825-1.051738.577423-1.361071 1.031114H10.8267c.474314-1.216716 1.62916-2.103474 2.598409-2.103474zm-8.5582495-2.144717H9.300652l-.123728.391822c-1.505427.26809-1.7528944.391824-2.3715629 2.06223l-1.3198274 3.629522c-.6392911 1.732272-.4743122 1.938494.6599137 1.938494 1.4012842 0 2.3202135-1.01874 3.1225227-1.90756.059603-.06599.118579-.131993.177042-.195913h.5155574l-1.4641818 2.598408H1.7529001l.123728-.371201c1.4848044-.268088 1.7322718-.391822 2.3509403-2.062228l1.3404481-3.650145c.5980478-1.670404.4743141-1.794137-.8248907-2.062227Z" clip-rule="evenodd"/>
</svg>
