<svg xmlns="http://www.w3.org/2000/svg" width="363" height="60" viewBox="0 0 363 60">
  <title>Ma classe en région / La région Auvergne-Rhône-Alpes</title>
  <style>/* <![CDATA[ */
    #maClasse,
    #region {
      animation-duration: 7s;
      animation-iteration-count: infinite;
      animation-direction: alternate;
      animation-delay: 1s;
    }

    #maClasse {
      animation-name: fadeIn;
      opacity: 0;
    }

    #region {
      animation-name: fadeOut;
      opacity: 1;
    }

    @keyframes fadeOut {
      0 {
    opacity: 1;
      }

      40% {
    opacity: 1;
      }

      60% {
    opacity: 0;
      }

      100% {
    opacity: 0;
      }
    }

    @keyframes fadeIn {
      0 {
    opacity: 0;
      }

      40% {
    opacity: 0;
      }

      60% {
    opacity: 1;
      }

      100% {
    opacity: 1;
      }
    }
    /* ]]> */
  </style>


	<g id="maClasse">

		<g>
                  <circle r="30" cy="30" cx="30" fill="#0096de" />

		  <path fill="#fff" d="M34.55404645 12.98963981h-2.81491993l-6.63981317 11.38469305 2.80991993 1.63994663 5.2148532-8.98474644 10.6447064 18.24449287 2.81493326-1.62494662zM18.63448684 38.61394584h29.66918593v3.25990658H18.63448684z"/>
		  <path fill="#fff" d="M34.10405979 26.79426614c-1.67994662 1.99494661-4.1798799 3.26490658-6.97479983 3.26490658-2.61493326 0-4.97986654-1.0949733-6.6398265-2.87491993h-2.88991992l-.11493333.215-7.49979982 12.83463968 2.80991993 1.61995996 5.4298532-9.31474644 1.1499733-1.97494662c2.10993329 1.69995996 4.80486655 2.73491994 7.75478648 2.73491994 3.74989324 0 7.10979982-1.67994663 9.3747331-4.3148799z"/>

		  <g fill="#0096de" stroke-width="3.749897">
		    <path d="M75.3027921 29.97113272h2.79955992v-7.24182648c0-1.85094662 1.27251997-2.7764266 2.66073327-2.7764266 1.36507997 0 2.15173328.76351998 2.15173328 2.54505327v7.47319981h2.7995466v-7.24182648c0-1.85094662 1.2725333-2.7764266 2.66073326-2.7764266 1.3882133 0 2.15173328.76351998 2.15173328 2.54505327v7.47319981h2.79955993v-7.65829314c0-3.33170658-1.80467995-4.69677322-4.02581323-4.69677322-1.5038933 0-3.16974659.67097332-4.09521323 2.17486662-.60155999-1.5038933-1.85094662-2.17486662-3.42425325-2.17486662-1.78154662 0-3.10034659.97174665-3.6787599 2.10545329v-1.85094663h-2.79955994zM98.7866315 30.20250605c1.85094663 0 2.91523993-.67097332 3.70189325-1.7121333v1.48075997h2.75327993V22.0351996c0-3.30855992-2.12858662-4.41913323-4.83559988-4.41913323-2.70701327 0-4.95127988 1.1799733-5.1826532 4.00266657h2.70701326c.13882666-1.20310664.85606665-1.89721328 2.31367994-1.89721328 1.64271996 0 2.19799995.80978664 2.19799995 2.42935993v.62469332h-1.5038933c-3.47051991 0-6.2006665 1.01802664-6.2006665 3.8407199 0 2.52191994 1.82779994 3.58621325 4.04894656 3.58621325zm.67095999-2.01290662c-1.38819997 0-1.94349329-.67097331-1.94349329-1.68898662 0-1.48075996 1.36507997-1.96663995 3.49366658-1.96663995h1.43447997v1.20311997c0 1.5501733-1.27251997 2.4525066-2.98465326 2.4525066z"/>
		  </g>

		  <g fill="#2f2e2d" stroke-width="3.749897">
		    <path d="M117.8115777 43.58357238c5.63538652 0 9.24679977-3.37329325 9.60397309-8.1355998h-4.40511989c-.2778 2.9367466-2.46051994 4.44481323-5.0004132 4.44481323-3.53203992 0-5.7544532-2.38114661-5.7544532-6.90533316v-.31749333c0-4.28606656 2.34146661-6.82595983 5.63538653-6.82595983 2.53989327 0 4.36543989 1.1508933 4.76230655 3.92890657h4.64323988c-.55559999-5.71475986-4.88135988-7.77842647-9.48491976-7.77842647-5.79411986 0-10.47705307 4.16701323-10.47705307 10.75485306v.31749333c0 6.62753317 4.52418655 10.5167464 10.47705307 10.5167464zM130.07460406 43.18670573h4.80198654V12.82705315h-4.80198654zM144.55985703 43.58357238c3.17486659 0 5.0004132-1.1508933 6.34973317-2.93675992v2.53989327h4.72261322V29.57446607c0-5.67506653-3.65109324-7.57998648-8.29433313-7.57998648-4.64323988 0-8.49277312 2.02397328-8.88962644 6.86565316h4.64323988c.23812-2.06366662 1.4683733-3.25423992 3.96858657-3.25423992 2.81769326 0 3.77014657 1.38899997 3.77014657 4.16701323v1.07150664h-2.57957327c-5.95287985 0-10.63579973 1.74618662-10.63579973 6.58785317 0 4.3257599 3.13517325 6.15130651 6.94501316 6.15130651zm1.1508933-3.45266658c-2.3811466 0-3.33361325-1.1508933-3.33361325-2.8970666 0-2.53989326 2.34146661-3.37329324 5.99255985-3.37329324h2.46051994v2.06365328c0 2.65895993-2.18271994 4.20670656-5.11946654 4.20670656zM166.66481648 43.58357238c5.3178932 0 8.29433312-2.42083994 8.29433312-6.62753317 0-4.40513322-2.8970666-5.59570652-7.77841314-6.34973317-3.29393325-.55559999-4.28607989-1.1508933-4.28607989-2.65895993 0-1.4683733 1.23026664-2.46051994 3.29393325-2.46051994 2.22239995 0 3.29391992.8730933 3.69077324 2.77801326h4.44481322c-.51591998-4.68293321-3.88921323-6.27035984-8.13558646-6.27035984-3.88921324 0-7.77842647 2.06366661-7.77842647 6.23067984 0 3.8891999 2.02397328 5.43694653 7.50062648 6.31003984 3.05579992.51592 4.44479989 1.1508933 4.44479989 2.8573866 0 1.74617329-1.15087997 2.6589466-3.73046658 2.6589466-2.81769326 0-3.8891999-1.23026664-4.1273199-3.33361325h-4.52418655c.19842666 4.40513322 3.33361325 6.86565316 8.69119979 6.86565316zM184.68218936 43.58357238c5.3178932 0 8.29433312-2.42083994 8.29433312-6.62753317 0-4.40513322-2.89706659-5.59570652-7.77841313-6.34973317-3.29393326-.55559999-4.2860799-1.1508933-4.2860799-2.65895993 0-1.4683733 1.23026664-2.46051994 3.29393325-2.46051994 2.22239995 0 3.29391992.8730933 3.69077324 2.77801326h4.44481323c-.51590666-4.68293321-3.88921324-6.27035984-8.13558647-6.27035984-3.88921323 0-7.77842647 2.06366661-7.77842647 6.23067984 0 3.8891999 2.02397328 5.43694653 7.50062648 6.31003984 3.05579992.51592 4.44481322 1.1508933 4.44481322 2.8573866 0 1.74617329-1.1508933 2.6589466-3.7304799 2.6589466-2.81769327 0-3.8891999-1.23026664-4.1273199-3.33361325h-4.52418655c.19842666 4.40513322 3.33361325 6.86565316 8.69119978 6.86565316zM204.72353552 43.58357238c5.31790654 0 8.84994645-2.38115994 9.52459977-6.74659983h-4.64323989c-.35717332 2.02398662-1.86522662 3.17486659-4.76229321 3.17486659-3.57173325 0-5.55602653-2.22239995-5.71475986-6.15129318h15.19966629v-1.3890133c0-7.42123981-4.64323989-10.47705307-9.80239976-10.47705307-5.91318652 0-10.3183064 4.28606656-10.3183064 10.71517306v.31748c0 6.54817317 4.40511988 10.55643973 10.51673306 10.55643973zm-5.51631986-12.93758634c.47622666-3.21454659 2.4208266-5.15915987 5.3178932-5.15915987 2.97643993 0 4.80198655 1.58743996 5.04010654 5.15915987z" style="-inkscape-font-specification:'Graphik Medium, '"/>
		  </g>

		  <g fill="#0096de" stroke-width="3.749897">
		    <path d="M222.47720175 30.20250605c3.10034659 0 5.15951987-1.3882133 5.55283986-3.93326657h-2.70699993c-.20824 1.1799733-1.08743998 1.85094662-2.7764266 1.85094662-2.08230662 0-3.23914659-1.29566663-3.33170658-3.58621324h8.8614131v-.80978665c0-4.32658656-2.70701326-6.10811985-5.71479985-6.10811985-3.44738658 0-6.01557318 2.49877328-6.01557318 6.24694651v.18509333c0 3.81757324 2.5681866 6.15439985 6.13125318 6.15439985zm-3.21601326-7.54261314c.27764-1.87407996 1.41134664-3.0077866 3.10033326-3.0077866 1.73526662 0 2.79955993.92547998 2.9383866 3.0077866zM229.64958823 29.97113272h2.79955993v-7.12614649c0-1.92035995 1.27251997-2.8921066 2.8458266-2.8921066 1.6658533 0 2.40623994.83293332 2.40623994 2.66074661v7.35750648h2.7995466v-7.61201314c0-3.33170658-1.71211996-4.74305322-4.14149323-4.74305322-1.98975995 0-3.33169325.99487998-3.9101199 2.17486662v-1.92035996h-2.79955994z"/>
		  </g>

		  <g fill="#384050" stroke-width="3.749897">
		    <path d="M244.37909453 43.18670573h5.2782132V31.717506h3.37329325l7.42125315 11.46919972h5.71475986l-7.97685314-12.2629197c3.53203992-.9127733 6.31003985-3.17486659 6.31003985-7.6196798v-.15873334c0-5.79413319-4.3654399-8.33402646-10.5961064-8.33402646h-9.52459977zm5.2782132-15.23935962v-9.04835978h4.24638656c3.37329325 0 5.39726654 1.11119997 5.39726654 4.3654399v.15874666c0 3.01611992-1.86523996 4.52417322-5.39726654 4.52417322zM274.46100045 19.33553299h3.5320399l4.1273199-6.15130651h-5.3178932zm2.26209327 24.2480394c5.3178932 0 8.84993312-2.38115995 9.52459977-6.74659984h-4.64325322c-.35716 2.02398662-1.86522662 3.17486659-4.76229322 3.17486659-3.5717199 0-5.55601319-2.22239995-5.71475985-6.15129318h15.19967962v-1.3890133c0-7.42123981-4.64325322-10.47705307-9.80239976-10.47705307-5.91319985 0-10.31831974 4.28606656-10.31831974 10.71517306v.31748c0 6.54817317 4.40511989 10.55643973 10.5167464 10.55643973zm-5.5163332-12.93758635c.47622666-3.21454659 2.42083995-5.15915987 5.31790654-5.15915987 2.9764266 0 4.80197322 1.58743996 5.04009321 5.15915987zM297.87566653 50.80638553c6.4291065 0 10.5167464-3.05579992 10.5564264-9.16742643V22.43102624h-4.80198655v3.1748666c-1.1905733-2.06366662-3.25422658-3.61141325-6.66721316-3.61141325-5.35758653 0-9.3261731 4.36543989-9.3261731 10.19925308v.27779999c0 5.99255985 4.0082799 9.88177309 9.20711977 9.88177309 3.05579992 0 5.63538652-1.86522662 6.7862665-3.8495199v3.05579992c0 3.73046657-2.06365329 5.59570652-5.79411986 5.59570652-3.13518659 0-4.72261322-1.1905733-5.11947987-3.25423992h-4.84166655c.55559999 3.96858657 3.49234658 6.90533316 10.00082642 6.90533316zm.15874666-12.14386636c-3.09549325 0-5.47663986-2.3811466-5.47663986-6.2306665v-.31749333c0-3.77014658 2.06365328-6.34973318 5.63538652-6.34973318 3.45266658 0 5.5956932 2.3414666 5.5956932 6.27037318v.27779999c0 3.96857323-2.4208266 6.34971984-5.75443986 6.34971984zM312.6783995 43.18670573h4.80198654V22.43102624h-4.80198655zm2.3414666-24.16866607c1.58742663 0 2.85737326-1.1905733 2.85737326-2.73831993 0-1.58742663-1.26994663-2.77801326-2.85737326-2.77801326-1.58743996 0-2.8573866 1.19058663-2.8573866 2.77801326 0 1.54774663 1.26994664 2.73831993 2.8573866 2.73831993zM331.0133057 39.8531058c-3.65109324 0-5.75445319-2.65895992-5.75445319-6.90533315v-.31749333c0-4.28606656 2.18271995-6.86565316 5.75445319-6.86565316 3.57171991 0 5.71475986 2.6192666 5.71475986 6.90533316v.27781333c0 4.24637323-2.14303995 6.90533316-5.71475986 6.90533316zm-.03973333 3.73046658c6.11162651 0 10.67549306-4.20670656 10.67549306-10.67549306v-.31748c0-6.34973317-4.56386655-10.59611973-10.63579973-10.59611973-6.11162651 0-10.67549307 4.28606656-10.67549307 10.71517306v.31748c0 6.31005317 4.52418656 10.55643973 10.63579974 10.55643973zM344.38738537 43.18670573h4.80198654V30.96347936c0-3.29393325 2.18271995-4.9607332 4.88134655-4.9607332 2.8573866 0 4.12733323 1.4286933 4.12733323 4.56386655v12.62009302h4.80198654V30.13007938c0-5.71475985-2.93675992-8.1355998-7.10377315-8.1355998-3.41297325 0-5.71474653 1.7064933-6.70689317 3.73046658v-3.29391992h-4.80198654z"/>
		  </g>
		</g>
	</g>



	<g id="region">

          
	  <path fill="#2c3546" d="M170.85719612 1.56394833h6.66765903v24.20159175h11.97643433v5.22765901h-18.64409336V1.56394833m35.57350142 21.89693v-1.81134886h-2.30367136c-3.45798456 0-5.47472878.74129245-5.47472878 3.0455399 0 1.56461026.9467721 2.59340594 3.12723726 2.59340594 2.63441866 0 4.65116288-1.4409098 4.65116288-3.82759697m-13.62274133 1.56460964c0-5.0225942 4.60981713-6.9159685 11.19421415-6.9159685h2.42852718v-.86433118c0-2.55140035-.78222637-3.95154488-3.4985055-3.95154488-2.3458357 0-3.415814 1.19474917-3.66222021 3.04711076h-5.63927452c.37043721-5.10461963 4.40392566-7.36785502 9.67276296-7.36785502 5.2671815 0 9.012918 2.13986547 9.012918 7.98445472v14.03584521h-5.80299546v-2.593654c-1.23452405 1.72866174-3.12806207 3.04587045-6.50336136 3.04587045-3.91028224 0-7.20206524-1.89370484-7.20206524-6.41992756m43.916069-9.92016514c3.33312875 0 5.0207753-1.39857367 5.0207753-4.23838768v-.16603597c0-3.00419664-1.81085275-4.03357092-5.0207753-4.03357092h-3.7457365v8.43799457zm-10.37229785-13.5407128h10.5360188c6.95649004 0 11.3612405 2.839814 11.3612405 8.9308938v.16405148c0 4.44576752-2.59389771 6.79169004-6.05105747 7.82139549l7.77922495 12.51224828h-7.07969005l-7.03834431-11.35983462h-2.88083106v11.35983462h-6.62656136V1.56461003M262.93839469-2.3e-7h6.25694895l-4.28155047 6.5445378h-4.32289zm4.85622954 17.90437242c-.20589148-3.25192812-1.85219848-4.81521435-4.6916838-4.81521435-2.6757582 0-4.48578613 1.76868158-4.93891482 4.81521435zm-15.76269176 2.59208253v-.3285166c0-6.79102834 4.81488381-11.1953695 11.07100796-11.1953695 5.55576444 0 10.49550406 3.2519275 10.49550406 10.94863027v1.6453129h-15.51710416c.16454574 3.5811058 2.0986047 5.63927638 5.34987297 5.63927638 2.75761865 0 4.11699852-1.19384002 4.48744194-3.00452718h5.63844972c-.7003659 4.65116287-4.40475667 7.24481625-10.2896126 7.24481625-6.50253655 0-11.23555989-4.0762376-11.23555989-10.94962252m41.47514494-.8223256v-.28783442c0-3.66313185-1.93488376-5.8853539-5.18532102-5.8853539-3.33478456 0-5.18697684 2.386356-5.18697684 5.92636661v.32884776c0 3.58102273 2.09860469 5.80324538 5.06377063 5.80324538 3.12723727 0 5.30852723-2.22222265 5.30852723-5.88527143m-16.29933053 11.77128642h5.92703267c.3696124 1.89279631 1.72899228 3.1272354 4.77519388 3.1272354 3.62087449 0 5.43255824-1.89180344 5.43255824-5.26743141v-3.25093525c-1.19317831 2.09852158-3.7449117 3.99156596-6.9143195 3.99156596-5.22831638 0-9.38418622-3.90920937-9.38418622-10.28969507v-.28750388c0-6.17500787 4.1145241-10.49575213 9.46604668-10.49575213 3.4985055 0 5.5987598 1.52194297 6.83245904 3.70472379v-3.2115765h5.92702647v19.83917308c-.04136435 6.38015515-4.28155047 9.63117289-11.3595847 9.63117289-6.95649006 0-10.12506686-3.04587045-10.70222656-7.49097688m27.92269198-21.97936908h5.92619546v21.52558116h-5.92619546zm-.45230388-6.17310585c0-1.85203104 1.48093026-3.25225867 3.37447448-3.25225867 1.93405275 0 3.41663882 1.40022763 3.41663882 3.25225867 0 1.85244468-1.48258607 3.25101773-3.41663882 3.25101773-1.89354422 0-3.37447448-1.39857305-3.37447448-3.25101773m27.52661755 17.08080589v-.28783442c0-4.11658923-1.93488376-6.58555051-5.2680125-6.58555051-3.29343882 0-5.2688373 2.3866047-5.2688373 6.50352446v.32876527c0 4.1153483 1.89353802 6.58530183 5.2688373 6.58530183 3.33312874 0 5.2680125-2.46995353 5.2680125-6.54420663m-16.6284282.08235659v-.3291783c0-6.74968446 4.89757527-11.15402563 11.3604157-11.15402563 6.46119082 0 11.31741416 4.32198457 11.31741416 11.03098687v.32876527c0 6.79102834-4.89756908 11.11177199-11.35792889 11.11177199-6.4223257 0-11.31990098-4.27973093-11.31990098-10.9883202m27.21488422-10.98939493h5.96672259v3.41672316c1.07079691-2.14151941 3.41746362-3.90995355 6.99865439-3.90995355 4.23855511 0 7.24341098 2.5510698 7.24341098 8.31330247v13.70542599h-5.9683722V18.1511939c0-2.9221706-1.15183258-4.32074426-3.78625123-4.32074426-2.55255819 0-4.48744194 1.56262514-4.48744194 4.7318655v12.4298917h-5.9667226V9.46670817M174.04454502 51.21835605h4.67348846l-2.3362481-6.93540044zm1.33755041-8.29296077h2.14888066l4.56070086 13.47479466h-1.6210853l-1.3191132-3.88178177h-5.55915049l-1.3003411 3.88178177h-1.54525895l4.63536752-13.47479466m7.90565596 9.85722374v-6.23808197h1.56460778v6.16218306c0 1.73352375.73451164 2.5064602 2.28076283 2.5064602 1.39410856 0 2.7129737-.92312994 2.7129737-2.69477214v-5.97387112h1.56444654v9.8556529h-1.56444654V54.8359189c-.45229769.92474234-1.54542639 1.7344912-3.12806208 1.7344912-1.96060158 0-3.43028223-1.07461274-3.43028223-3.78779109m9.58635676-6.23808197h1.69674422l2.92133959 8.2729676 2.88331168-8.2729676h1.61984499l-3.54232565 9.85630592h-1.99773026l-3.58118457-9.85630592m17.02532124 3.97610364c-.15049302-2.03485275-1.20558141-2.84560253-2.82708222-2.84560253-1.60248065 0-2.67575819 1.0927132-2.93953494 2.84560253zm-7.44434122 1.05558637v-.15115225c0-2.97806765 1.9034605-5.0500466 4.617259-5.0500466 2.28052097 0 4.42873807 1.37591692 4.42873807 4.8998035v.5081135h-7.42532727c.07524961 2.24224934 1.15018297 3.48740471 3.16610238 3.48740471 1.52723104 0 2.41198764-.5658952 2.61953493-1.71576189h1.56361554c-.33902016 1.9790053-1.9778791 3.0151771-4.20217062 3.0151771-2.7882171 0-4.76775203-1.95994607-4.76775203-4.99353807m10.9775692-5.03169h1.56444653v1.77099723c.62097986-1.11206141 1.46935197-1.88469213 3.2405148-1.94116779v1.4702636c-1.97787911.09368496-3.2405148.71640311-3.2405148 3.14757649v5.40863638h-1.56444654v-9.85630592m13.35896459 4.7490649v-.13246513c0-2.20444469-1.20557522-3.48609866-3.12805587-3.48609866-1.96052097 0-3.12889308 1.45124591-3.12889308 3.52487882v.1502431c0 2.14854764 1.3759194 3.42923417 3.03462951 3.42923417 1.82821709 0 3.22232564-1.28068653 3.22232564-3.4857923m-7.66925285 5.6724832h1.60082483c.22656745 1.13049304 1.16920312 1.71511755 2.84610238 1.71511755 1.9406698 0 3.16609618-.9237749 3.16609618-3.03455882V54.2151189c-.5647566.95994234-1.9034605 1.86531042-3.33560936 1.86531042-2.58149462 0-4.48496132-1.9605991-4.48496132-4.6737942v-.13180341c0-2.6760106 1.88362174-4.8998035 4.59824504-4.8998035 1.63968995 0 2.65756904.79131784 3.22232564 1.752227v-1.58329676h1.56444034v9.19732047c-.01903876 2.8640168-1.96051476 4.2587207-4.71152257 4.2587207-2.92051478 0-4.20299542-1.37596716-4.46594116-3.03391447m11.68950719-10.4215481h1.56361553v1.5642791c.45230388-.92369986 1.54542638-1.73444965 3.16610238-1.73444965 2.03493337 0 3.46707603 1.1117315 3.46707603 3.97676473v6.04971174h-1.56361553v-6.16340663c0-1.73287879-.73508838-2.50584004-2.31772407-2.50584004-1.45116282 0-2.75183881.92312187-2.75183881 2.69478082v5.97446585h-1.56361553v-9.85630592m17.48010574 3.97610364c-.14966822-2.03485275-1.20558142-2.84560253-2.82708222-2.84560253-1.60165585 0-2.6757644 1.0927132-2.93953494 2.84560253zm-7.44434122 1.05558637v-.15115225c0-2.97806765 1.9034605-5.0500466 4.617259-5.0500466 2.28051477 0 4.42873186 1.37591692 4.42873186 4.8998035v.5081135h-7.42532106c.07607442 2.24224934 1.15018296 3.48740471 3.167752 3.48740471 1.52558141 0 2.41116283-.5658952 2.61871012-1.71576189h1.56361553c-.33902016 1.9790053-1.9778791 3.0151771-4.20217062 3.0151771-2.78904191 0-4.76857683-1.95994607-4.76857683-4.99353807m10.92465136-1.0927132h4.03265744v1.4696515h-4.03265744v-1.4696515m10.8800002-1.2441966c1.92164964 0 2.95854889-.8294363 2.95854889-2.48806145v-.07491473c0-1.8281346-1.1303318-2.43051167-2.9585489-2.43051167h-2.52610236v4.99348784zm-4.16496132-6.31292973h4.0516776c2.58232562 0 4.71152256 1.05517273 4.71152256 3.74995355v.07491473c0 2.2238754-1.48919693 3.3172503-3.33560316 3.67512131l4.126921 5.97381282h-1.82821708l-4.01364349-5.86011793h-2.07379848v5.86011793h-1.63885895V42.92638753m11.15617385-1.0933749h1.56444654v6.27580352c.45229768-.92369986 1.54459537-1.73444965 3.16527137-1.73444965 2.03493337 0 3.46790704 1.1117315 3.46790704 3.97676473v6.04905871h-1.56444654v-6.1627536c0-1.73287879-.73508838-2.50584004-2.31772407-2.50584004-1.45033801 0-2.7510078.92312187-2.7510078 2.69478082v5.97381282h-1.56444654V41.83301262m14.146977.30197396h1.41395351l2.01591942 2.7132199h-1.14935816l-1.60248065-1.41312685-1.60164964 1.41312685h-1.11131785zm3.91937991 9.42247025v-.13238202c0-2.28035167-1.26263568-3.75003603-3.22150083-3.75003603-1.98035973 0-3.22397525 1.46968436-3.22397525 3.73159634v.15082171c0 2.2426047 1.22542638 3.7128931 3.22397525 3.7128931 1.9778853 0 3.22150083-1.48901709 3.22150083-3.7128931m-8.06532107 0v-.1508217c0-2.95962797 2.05395352-5.03160692 4.84382024-5.03160692 2.7882171 0 4.84300164 2.05362236 4.84300164 5.01225808v.15181395c0 2.9770506-2.05478454 5.0306649-4.8628466 5.0306649-2.80806207 0-4.82397528-2.12952128-4.82397528-5.0123083m11.60351028-5.01291979h1.56362174v1.5642791c.45229768-.92369986 1.54459538-1.73444965 3.16527137-1.73444965 2.03575818 0 3.46790704 1.1117315 3.46790704 3.97676473v6.04971174h-1.56444654v-6.16340663c0-1.73287879-.73508838-2.50584004-2.31772407-2.50584004-1.45116282 0-2.7510078.92312187-2.7510078 2.69478082v5.97446585h-1.56362174v-9.85630592m17.48010575 3.97610364c-.15049303-2.03485275-1.20640623-2.84560253-2.82708222-2.84560253-1.60164965 0-2.6757582 1.0927132-2.93953494 2.84560253zm-7.44434122 1.05558637v-.15115225c0-2.97806765 1.9034605-5.0500466 4.617259-5.0500466 2.28052097 0 4.42873186 1.37591692 4.42873186 4.8998035v.5081135h-7.42532107c.07524962 2.24224934 1.15018297 3.48740471 3.16527138 3.48740471 1.52806204 0 2.41281865-.5658952 2.61953493-1.71576189h1.56527135c-.33902016 1.9790053-1.97953492 3.0151771-4.20299543 3.0151771-2.7882171 0-4.76775202-1.95994607-4.76775202-4.99353807m10.92465136-1.0927132h4.03348844v1.4696515h-4.03348844v-1.4696515m8.55813969.73484219h4.67265745l-2.33591322-6.93540044zm1.33705429-8.29296077h2.1490419l4.56020473 13.47479466h-1.6206698l-1.31886514-3.88178177h-5.55989467l-1.29984499 3.88178177h-1.54460158l4.63462955-13.47479466m8.36961255-1.09238266h1.58263569V56.3992225h-1.58263569V41.83301262m11.85570874 9.72444421v-.1508217c0-2.48706982-1.3759194-3.73159697-3.0337985-3.73159697-1.82821709 0-3.22315045 1.205747-3.22315045 3.73159696v.15082171c0 2.52523043 1.31968995 3.7128931 3.2421706 3.7128931 1.95968996 0 3.01477835-1.31944995 3.01477835-3.7128931m-7.76516603-5.01349838h1.56444034v1.65920375c.56641241-.96157087 1.9042915-1.82813399 3.33560936-1.82813399 2.58232563 0 4.48578613 1.88469213 4.48578613 4.95636164v.15016c0 3.0161861-1.77116282 5.08886025-4.48578613 5.08886025-1.6206698 0-2.76919695-.81072498-3.33560936-1.79101585v5.05103203h-1.56444034V46.54395845m18.14325614 3.97668224c-.15049302-2.03485275-1.20558141-2.84560253-2.82708222-2.84560253-1.60248065 0-2.67576439 1.0927132-2.93953494 2.84560253zm-7.44434122 1.05558637v-.15115225c0-2.97806765 1.9034605-5.0500466 4.617259-5.0500466 2.28134578 0 4.42790706 1.37591692 4.42790706 4.8998035v.5081135h-7.42449626c.07607442 2.24224934 1.15018297 3.48740471 3.16692719 3.48740471 1.52640623 0 2.41116283-.5658952 2.61870392-1.71576189h1.56362174c-.33902016 1.9790053-1.97788531 3.0151771-4.20217062 3.0151771-2.78904811 0-4.76775203-1.95994607-4.76775203-4.99353807m10.25570872 1.7900484h1.52640623c.11328372 1.16860406.73509458 1.9034295 2.31855508 1.9034295 1.48754731 0 2.14821709-.50872559 2.14821709-1.5642791 0-1.03682482-.77229769-1.37596653-2.29953493-1.65762483-2.56330547-.47157397-3.42904192-1.18797708-3.42904192-2.90216812 0-1.8281346 1.78935197-2.7712664 3.33477836-2.7712664 1.77116282 0 3.29756905.71607257 3.5613458 2.84626361h-1.50739228c-.22573644-1.07460467-.82852714-1.54559196-2.07297368-1.54559196-1.13116281 0-1.8662512.56525086-1.8662512 1.4141191 0 .8850028.4911628 1.2435349 2.30035974 1.56394855 2.03493957.37631008 3.46708223.82844404 3.46708223 2.92086393 0 1.78940344-1.22377057 2.99644036-3.61840007 2.99644036-2.35575818 0-3.7697117-1.1876546-3.86315045-3.20413463"/>
	  <path fill="#4495d7" d="M157.6397906 28.94701797c0 15.15245485-12.28320394 27.43541073-27.43565816 27.43541073-15.15311656 0-27.43574944-12.28295588-27.43574944-27.43541073 0-15.15311593 12.28263288-27.4363205 27.43574944-27.4363205 15.15245422 0 27.43565817 12.28320457 27.43565817 27.4363205"/>
	  <path fill="#fff" d="M134.440535 13.07394296h-2.62242858l-6.18889934 10.62763802 2.61622765 1.5231839 4.88053714-8.38011364 9.92694591 17.01837674 2.62019602-1.51739537-11.2325788-19.27168965m12.824972 26.93738467h-27.67123522v-3.02809246H147.265507v3.02809246"/>
	  <path fill="#fff" d="M134.0290832 25.96638722c-1.56014514 1.85500779-3.89606208 3.0326413-6.50840322 3.0326413-2.43869772 0-4.63603109-1.0268118-6.18608755-2.67055323h-2.69734393l-.11113178.19092527-6.98931238 11.9641137 2.61333339 1.52781337 5.07658861-8.69027365-.01289922-.00254263 1.07906979-1.85244469c1.9764757 1.59660964 4.4896745 2.55272377 7.22778307 2.55272377 3.49932844 0 6.63532788-1.56014452 8.74798962-4.02455821l-2.2395864-2.02782453"/>
	</g>
</svg>
